<?xml version="1.0" encoding="UTF-8" standalone="no"?>
<!-- Created with Inkscape (http://www.inkscape.org/) -->

<svg
   width="2.8378906mm"
   height="2.8203125mm"
   viewBox="0 0 2.8378906 2.8203125"
   version="1.1"
   id="svg5"
   inkscape:version="1.2.2 (b0a8486541, 2022-12-01)"
   sodipodi:docname="frames.svg"
   xml:space="preserve"
   inkscape:export-filename="../assets/img/bord-titre-def.png"
   inkscape:export-xdpi="362.85999"
   inkscape:export-ydpi="362.85999"
   xmlns:inkscape="http://www.inkscape.org/namespaces/inkscape"
   xmlns:sodipodi="http://sodipodi.sourceforge.net/DTD/sodipodi-0.dtd"
   xmlns="http://www.w3.org/2000/svg"
   xmlns:svg="http://www.w3.org/2000/svg"><sodipodi:namedview
     id="namedview7"
     pagecolor="#ffffff"
     bordercolor="#000000"
     borderopacity="0.25"
     inkscape:showpageshadow="2"
     inkscape:pageopacity="0.0"
     inkscape:pagecheckerboard="0"
     inkscape:deskcolor="#d1d1d1"
     inkscape:document-units="mm"
     showgrid="false"
     inkscape:zoom="0.18017567"
     inkscape:cx="-2292.2074"
     inkscape:cy="-10184.505"
     inkscape:window-width="1920"
     inkscape:window-height="1011"
     inkscape:window-x="0"
     inkscape:window-y="32"
     inkscape:window-maximized="1"
     inkscape:current-layer="layer1"
     showguides="false"><sodipodi:guide
       position="1568.8837,215.32342"
       orientation="0,-1"
       id="guide3308"
       inkscape:locked="false" /><sodipodi:guide
       position="1350.3225,31.459915"
       orientation="1,0"
       id="guide36114"
       inkscape:locked="false" /><sodipodi:guide
       position="1016.0314,18.903245"
       orientation="1,0"
       id="guide65042"
       inkscape:locked="false" /><sodipodi:guide
       position="1035.8294,224.83034"
       orientation="1,0"
       id="guide65924"
       inkscape:locked="false" /><sodipodi:guide
       position="1060.9381,94.854046"
       orientation="1,0"
       id="guide66019"
       inkscape:locked="false" /><sodipodi:guide
       position="1016.5736,250.48233"
       orientation="1,0"
       id="guide72513"
       inkscape:locked="false" /><sodipodi:guide
       position="1057.9657,95.787736"
       orientation="1,0"
       id="guide4641"
       inkscape:locked="false" /><sodipodi:guide
       position="1241.087,439.16708"
       orientation="0,-1"
       id="guide14503"
       inkscape:locked="false" /><inkscape:grid
       type="xygrid"
       id="grid17361" /><sodipodi:guide
       position="707.7181,261.0181"
       orientation="0,-1"
       id="guide21314"
       inkscape:locked="false" /><sodipodi:guide
       position="1277.6597,261.0181"
       orientation="0,-1"
       id="guide21316"
       inkscape:locked="false" /><sodipodi:guide
       position="692.58536,514.09254"
       orientation="0,-1"
       id="guide51926"
       inkscape:locked="false" /><sodipodi:guide
       position="649.56739,505.45767"
       orientation="0,-1"
       id="guide51928"
       inkscape:locked="false" /><sodipodi:guide
       position="650.7676,278.28672"
       orientation="0,-1"
       id="guide34297"
       inkscape:locked="false" /></sodipodi:namedview><defs
     id="defs2"><linearGradient
       id="linearGradient44789"
       inkscape:swatch="solid"><stop
         style="stop-color:#e0e0e6;stop-opacity:1;"
         offset="0"
         id="stop44787" /></linearGradient><linearGradient
       id="linearGradient21330"
       inkscape:swatch="solid"><stop
         style="stop-color:#ed333b;stop-opacity:1;"
         offset="0"
         id="stop21328" /></linearGradient></defs><g
     inkscape:label="Calque 1"
     inkscape:groupmode="layer"
     id="layer1"
     transform="translate(1607.1016,394.38088)"><g
       id="g15698"><path
         style="color:#000000;fill:#ffffff;stroke-linecap:round;stroke-linejoin:round;-inkscape-stroke:none;paint-order:fill markers stroke"
         d="m -1605.6816,-394.38086 c -0.7822,-3e-5 -1.42,0.63189 -1.42,1.41016 0,0.77826 0.6378,1.41018 1.42,1.41015 0.7821,-3e-5 1.4179,-0.63193 1.4179,-1.41015 0,-0.77823 -0.6358,-1.41013 -1.4179,-1.41016 z m 0,0.21094 c 0.6685,2e-5 1.207,0.53612 1.207,1.19922 0,0.66309 -0.5385,1.19919 -1.207,1.19922 -0.6686,2e-5 -1.2071,-0.53609 -1.2071,-1.19922 0,-0.66313 0.5385,-1.19925 1.2071,-1.19922 z"
         id="ellipse13979" /><path
         d="m -1605.4997,-392.91994 -0.057,-0.29843 q -0.058,-0.30618 -0.2881,-0.30618 -0.1731,0 -0.2519,0.14211 -0.099,0.17828 -0.099,0.41341 0,0.28422 0.097,0.41987 0.098,0.13823 0.2545,0.13823 0.1731,0 0.2661,-0.27518 z m 0.1331,-0.39533 0.1279,-0.37852 h 0.2119 l -0.2649,0.78418 0.052,0.28293 q 0.012,0.0633 0.057,0.11627 0.053,0.062 0.094,0.062 h 0.1137 v 0.20153 h -0.1422 q -0.1214,0 -0.2299,-0.10852 -0.053,-0.0543 -0.075,-0.16795 -0.059,0.14341 -0.1808,0.2558 -0.057,0.053 -0.2416,0.053 -0.3036,0 -0.4509,-0.19637 -0.1511,-0.20283 -0.1511,-0.5581 0,-0.37983 0.164,-0.55811 0.1822,-0.19895 0.438,-0.19895 0.4018,0 0.478,0.41082 z"
         id="path14944"
         style="font-size:2.64583px;font-family:'Archivo Narrow';-inkscape-font-specification:'Archivo Narrow';text-align:center;text-anchor:middle;fill:#ffffff;stroke-width:0.211667;stroke-linecap:round;stroke-linejoin:round;paint-order:fill markers stroke" /></g></g></svg>
