<?xml version="1.0" encoding="UTF-8" standalone="no"?>
<!-- Created with Inkscape (http://www.inkscape.org/) -->

<svg
   width="2.8398438mm"
   height="2.8222351mm"
   viewBox="0 0 2.8398438 2.8222351"
   version="1.1"
   id="svg5"
   inkscape:version="1.2.2 (b0a8486541, 2022-12-01)"
   sodipodi:docname="frames.svg"
   xml:space="preserve"
   inkscape:export-filename="../assets/img/bord-titre-def.png"
   inkscape:export-xdpi="362.85999"
   inkscape:export-ydpi="362.85999"
   xmlns:inkscape="http://www.inkscape.org/namespaces/inkscape"
   xmlns:sodipodi="http://sodipodi.sourceforge.net/DTD/sodipodi-0.dtd"
   xmlns="http://www.w3.org/2000/svg"
   xmlns:svg="http://www.w3.org/2000/svg"><sodipodi:namedview
     id="namedview7"
     pagecolor="#ffffff"
     bordercolor="#000000"
     borderopacity="0.25"
     inkscape:showpageshadow="2"
     inkscape:pageopacity="0.0"
     inkscape:pagecheckerboard="0"
     inkscape:deskcolor="#d1d1d1"
     inkscape:document-units="mm"
     showgrid="false"
     inkscape:zoom="0.18017567"
     inkscape:cx="-2292.2074"
     inkscape:cy="-10184.505"
     inkscape:window-width="1920"
     inkscape:window-height="1011"
     inkscape:window-x="0"
     inkscape:window-y="32"
     inkscape:window-maximized="1"
     inkscape:current-layer="layer1"
     showguides="false"><sodipodi:guide
       position="1572.1454,215.52458"
       orientation="0,-1"
       id="guide3308"
       inkscape:locked="false" /><sodipodi:guide
       position="1353.5842,31.661086"
       orientation="1,0"
       id="guide36114"
       inkscape:locked="false" /><sodipodi:guide
       position="1019.2931,19.104416"
       orientation="1,0"
       id="guide65042"
       inkscape:locked="false" /><sodipodi:guide
       position="1039.0911,225.0315"
       orientation="1,0"
       id="guide65924"
       inkscape:locked="false" /><sodipodi:guide
       position="1064.1998,95.055215"
       orientation="1,0"
       id="guide66019"
       inkscape:locked="false" /><sodipodi:guide
       position="1019.8353,250.68349"
       orientation="1,0"
       id="guide72513"
       inkscape:locked="false" /><sodipodi:guide
       position="1061.2274,95.988905"
       orientation="1,0"
       id="guide4641"
       inkscape:locked="false" /><sodipodi:guide
       position="1244.3487,439.36824"
       orientation="0,-1"
       id="guide14503"
       inkscape:locked="false" /><inkscape:grid
       type="xygrid"
       id="grid17361" /><sodipodi:guide
       position="710.9798,261.21926"
       orientation="0,-1"
       id="guide21314"
       inkscape:locked="false" /><sodipodi:guide
       position="1280.9214,261.21926"
       orientation="0,-1"
       id="guide21316"
       inkscape:locked="false" /><sodipodi:guide
       position="695.84706,514.2937"
       orientation="0,-1"
       id="guide51926"
       inkscape:locked="false" /><sodipodi:guide
       position="652.82909,505.65883"
       orientation="0,-1"
       id="guide51928"
       inkscape:locked="false" /><sodipodi:guide
       position="654.0293,278.48788"
       orientation="0,-1"
       id="guide34297"
       inkscape:locked="false" /></sodipodi:namedview><defs
     id="defs2"><linearGradient
       id="linearGradient44789"
       inkscape:swatch="solid"><stop
         style="stop-color:#e0e0e6;stop-opacity:1;"
         offset="0"
         id="stop44787" /></linearGradient><linearGradient
       id="linearGradient21330"
       inkscape:swatch="solid"><stop
         style="stop-color:#ed333b;stop-opacity:1;"
         offset="0"
         id="stop21328" /></linearGradient></defs><g
     inkscape:label="Calque 1"
     inkscape:groupmode="layer"
     id="layer1"
     transform="translate(1610.3633,394.18163)"><g
       id="g15694"><path
         style="color:#000000;fill:#ffffff;stroke-linecap:round;stroke-linejoin:round;-inkscape-stroke:none;paint-order:fill markers stroke"
         d="m -1608.9434,-394.18164 c -0.7821,0 -1.4199,0.63386 -1.4199,1.41211 0,0.77824 0.6378,1.41015 1.4199,1.41016 0.7822,0 1.42,-0.63192 1.42,-1.41016 0,-0.77825 -0.6378,-1.41211 -1.42,-1.41211 z m 0,0.21289 c 0.6686,0 1.2071,0.53611 1.2071,1.19922 0,0.66311 -0.5385,1.19922 -1.2071,1.19922 -0.6685,0 -1.207,-0.53611 -1.207,-1.19922 0,-0.66311 0.5385,-1.19922 1.207,-1.19922 z"
         id="ellipse13977" /><path
         d="m -1609.3296,-391.87802 v 0.35508 h -0.239 v -1.70383 c 0,-0.39274 0.1834,-0.58911 0.5503,-0.58911 0.3738,0 0.5607,0.16579 0.5607,0.49738 0,0.23599 -0.074,0.39704 -0.2222,0.48317 0.2411,0.0775 0.3617,0.23126 0.3617,0.46122 0,0.40824 -0.2076,0.61236 -0.6227,0.61236 -0.1825,0 -0.3121,-0.0388 -0.3888,-0.11627 z m 0,-0.31006 c 0.096,0.149 0.2282,0.2235 0.3979,0.2235 0.2481,0 0.3721,-0.13522 0.3721,-0.40566 0,-0.24288 -0.1998,-0.35484 -0.5995,-0.33589 v -0.21963 c 0.3127,0 0.469,-0.1378 0.469,-0.41341 0,-0.18862 -0.1008,-0.28293 -0.3023,-0.28293 -0.2248,0 -0.3372,0.13436 -0.3372,0.40308 z"
         id="path14828"
         sodipodi:nodetypes="cccssscssccssccsssc"
         style="font-size:2.64583px;font-family:'Archivo Narrow';-inkscape-font-specification:'Archivo Narrow';text-align:center;text-anchor:middle;fill:#ffffff;stroke-width:0.211667;stroke-linecap:round;stroke-linejoin:round;paint-order:fill markers stroke" /></g></g></svg>
